<svg xmlns="http://www.w3.org/2000/svg" xmlns:xlink="http://www.w3.org/1999/xlink" width="694" height="107" viewBox="0 0 694 107">
  <defs>
    <filter id="Rectangle_322" x="0" y="0" width="340" height="96" filterUnits="userSpaceOnUse">
      <feOffset dy="3" input="SourceAlpha"/>
      <feGaussianBlur stdDeviation="3" result="blur"/>
      <feFlood flood-opacity="0.141"/>
      <feComposite operator="in" in2="blur"/>
      <feComposite in="SourceGraphic"/>
    </filter>
  </defs>
  <g id="Group_139" data-name="Group 139" transform="translate(-1161 -948)">
    <g transform="matrix(1, 0, 0, 1, 1161, 948)" filter="url(#Rectangle_322)">
      <rect id="Rectangle_322-2" data-name="Rectangle 322" width="322" height="78" rx="39" transform="translate(9 6)" fill="#89ea91"/>
    </g>
    <g id="Rectangle_328" data-name="Rectangle 328" transform="translate(1533 954)" fill="#fff" stroke="#89ea91" stroke-width="1">
      <rect width="322" height="78" rx="39" stroke="none"/>
      <rect x="0.5" y="0.5" width="321" height="77" rx="38.5" fill="none"/>
    </g>
    <text id="SIGN_UP_" data-name="SIGN UP
" transform="translate(1277 1003)" fill="#fff" font-size="28" font-family="Poppins-Regular, Poppins" opacity="0.93"><tspan x="0" y="0">SIGN UP</tspan><tspan x="0" y="42"></tspan></text>
    <text id="SIGN_IN_" data-name="SIGN IN
" transform="translate(1623 1003)" fill="#89ea91" font-size="28" font-family="Poppins-Regular, Poppins" opacity="0.93"><tspan x="0" y="0">SIGN IN</tspan><tspan x="0" y="42"></tspan></text>
    <path id="arrow" d="M9.065,20.994H30.306l-8.134-7.271a.957.957,0,0,1-.037-1.413,1.115,1.115,0,0,1,1.506-.034l9.289,8.3a1.913,1.913,0,0,1-.019,2.844l-9.271,8.287a1.115,1.115,0,0,1-1.506-.034.956.956,0,0,1,.037-1.413l8.168-7.271H9.065a1,1,0,1,1,0-2Z" transform="translate(1730.885 970.699)" fill="#89ea91"/>
  </g>
</svg>
