<svg xmlns="http://www.w3.org/2000/svg" xmlns:xlink="http://www.w3.org/1999/xlink" width="126" height="40" viewBox="0 0 126 40">
  <defs>
    <filter id="Rectangle_419" x="0" y="0" width="126" height="40" filterUnits="userSpaceOnUse">
      <feOffset dy="3" input="SourceAlpha"/>
      <feGaussianBlur stdDeviation="3" result="blur"/>
      <feFlood flood-opacity="0.141"/>
      <feComposite operator="in" in2="blur"/>
      <feComposite in="SourceGraphic"/>
    </filter>
  </defs>
  <g id="Group_138" data-name="Group 138" transform="translate(-19 -365)">
    <g transform="matrix(1, 0, 0, 1, 19, 365)" filter="url(#Rectangle_419)">
      <rect id="Rectangle_419-2" data-name="Rectangle 419" width="108" height="22" rx="11" transform="translate(9 6)" fill="#fff"/>
    </g>
    <text id="Join_Our_Community_" data-name="Join Our Community
" transform="translate(38 384)" fill="#645fcc" font-size="7" font-family="Poppins-Regular, Poppins" opacity="0.93"><tspan x="0" y="0">Join Our Community</tspan><tspan x="0" y="10"></tspan></text>
    <g id="telegram" transform="translate(116.174 374.369)">
      <circle id="Ellipse_132" data-name="Ellipse 132" cx="8" cy="8" r="8" transform="translate(-0.174 -0.369)" fill="#039be5"/>
      <path id="Path_494" data-name="Path 494" d="M5.265,10.06l7.265-2.8c.337-.122.632.082.522.592h0l-1.237,5.827c-.092.413-.337.514-.681.319L9.251,12.608l-.909.875a.475.475,0,0,1-.38.185L8.1,11.752,11.588,8.6c.152-.134-.034-.209-.234-.076L7.039,11.238l-1.86-.58c-.4-.128-.413-.4.085-.6Z" transform="translate(-1.526 -2.669)" fill="#fff"/>
    </g>
  </g>
</svg>
